<svg id="Layer_1" data-name="Layer 1" xmlns="http://www.w3.org/2000/svg" xmlns:xlink="http://www.w3.org/1999/xlink" viewBox="0 0 322.63 294.36"><defs><style>.cls-1{fill:url(#linear-gradient);}.cls-2{fill:url(#linear-gradient-2);}.cls-3{fill:url(#linear-gradient-3);}.cls-4{fill:url(#linear-gradient-4);}</style><linearGradient id="linear-gradient" x1="80.21" y1="111.31" x2="209.35" y2="111.31" gradientUnits="userSpaceOnUse"><stop offset="0.01" stop-color="#ae92fe"/><stop offset="1" stop-color="#3909ff"/></linearGradient><linearGradient id="linear-gradient-2" x1="153.24" y1="130.17" x2="227.13" y2="218.22" gradientUnits="userSpaceOnUse"><stop offset="0" stop-color="#ae92fe"/><stop offset="1" stop-color="#5b30ff"/></linearGradient><linearGradient id="linear-gradient-3" x1="96.69" y1="219.22" x2="152.65" y2="152.53" xlink:href="#linear-gradient"/><linearGradient id="linear-gradient-4" x1="175.05" y1="72.47" x2="240.76" y2="150.78" xlink:href="#linear-gradient-2"/></defs><path class="cls-1" d="M209.35,134.89a27.78,27.78,0,0,0-21.23-9.9H121.65a27.68,27.68,0,0,1-21.24-9.92L80.77,91.63a2.38,2.38,0,0,1,1.82-3.9h74.27a27.7,27.7,0,0,1,17.87,6.54,27.34,27.34,0,0,1,3.36,3.36l7.55,9Z"/><path class="cls-2" d="M240,206.66H203.22a14.46,14.46,0,0,1-11.07-5.15l-24.92-29.7-.07-.08c-.14-.19-.29-.36-.45-.54l-5.39-6.43L148.06,149l0,0a14.47,14.47,0,0,0-11-5.14h48.63A14.46,14.46,0,0,1,196.69,149l45.16,53.81A2.37,2.37,0,0,1,240,206.66Z"/><path class="cls-3" d="M166.71,171.19a7.39,7.39,0,0,0-10.78,0l-.45.54-.08.09-24.92,29.7a14.45,14.45,0,0,1-11.06,5.15H82.59a2.37,2.37,0,0,1-1.81-3.89L125.93,149a14.44,14.44,0,0,1,22.11,0l0,0,13.26,15.8Z"/><path class="cls-4" d="M242.39,131.78a44.6,44.6,0,0,1-5.75,21.91,6.56,6.56,0,0,1-10.73.92l-14.35-17.08-2.21-2.64-23.71-28.26-7.55-9a27.34,27.34,0,0,0-3.36-3.36,27.7,27.7,0,0,0-17.87-6.54l41.1,0h.2A44.21,44.21,0,0,1,242.39,131.78Z"/></svg>