<svg id="Layer_1" data-name="Layer 1" xmlns="http://www.w3.org/2000/svg" xmlns:xlink="http://www.w3.org/1999/xlink" viewBox="0 0 759.76 294.36"><defs><style>.cls-1{fill:url(#linear-gradient);}.cls-2{fill:url(#linear-gradient-2);}.cls-3{fill:url(#linear-gradient-3);}.cls-4{fill:url(#linear-gradient-4);}.cls-5{fill:#08052d;}</style><linearGradient id="linear-gradient" x1="82.79" y1="113.95" x2="195.3" y2="113.95" gradientUnits="userSpaceOnUse"><stop offset="0.01" stop-color="#ae92fe"/><stop offset="1" stop-color="#3909ff"/></linearGradient><linearGradient id="linear-gradient-2" x1="146.42" y1="130.38" x2="210.8" y2="207.1" gradientUnits="userSpaceOnUse"><stop offset="0" stop-color="#ae92fe"/><stop offset="1" stop-color="#5b30ff"/></linearGradient><linearGradient id="linear-gradient-3" x1="97.15" y1="207.98" x2="145.9" y2="149.87" xlink:href="#linear-gradient"/><linearGradient id="linear-gradient-4" x1="165.42" y1="80.12" x2="222.67" y2="148.34" xlink:href="#linear-gradient-2"/></defs><path class="cls-1" d="M195.3,134.5a23.89,23.89,0,0,0-5-4.52,24.13,24.13,0,0,0-13.47-4.11H118.89a24.11,24.11,0,0,1-18.5-8.64L83.28,96.8a2.06,2.06,0,0,1,1.58-3.39h64.71a24.13,24.13,0,0,1,15.57,5.69,24.66,24.66,0,0,1,2.93,2.94l6.57,7.84Z"/><path class="cls-2" d="M222,197H190a12.58,12.58,0,0,1-9.64-4.49L158.6,166.67a.21.21,0,0,0-.06-.08,5.45,5.45,0,0,0-.38-.46l-4.71-5.61-11.54-13.76,0,0a12.59,12.59,0,0,0-9.63-4.48h42.37a12.58,12.58,0,0,1,9.64,4.49l39.35,46.89A2.06,2.06,0,0,1,222,197Z"/><path class="cls-3" d="M158.16,166.13a6.45,6.45,0,0,0-9.4,0l-.4.47-.06.08-21.72,25.87A12.57,12.57,0,0,1,117,197H84.87a2.06,2.06,0,0,1-1.59-3.39l39.34-46.88a12.58,12.58,0,0,1,19.27,0l0,0,11.54,13.76Z"/><path class="cls-4" d="M224.09,131.79a38.87,38.87,0,0,1-5,19.09,5.72,5.72,0,0,1-9.35.8l-12.5-14.88-1.93-2.3-20.66-24.62L168.07,102a24.66,24.66,0,0,0-2.93-2.94,24.13,24.13,0,0,0-15.57-5.69l35.81,0h.17A38.52,38.52,0,0,1,224.09,131.79Z"/><path class="cls-5" d="M313.5,179.61,299.66,156A.75.75,0,0,1,300,155a22.28,22.28,0,0,0,12.53-19.67,22.79,22.79,0,0,0-22.88-22.77H263.24a1.09,1.09,0,0,0-1.09,1.09v66.52a1.09,1.09,0,0,0,1.09,1.09h11.37a1.09,1.09,0,0,0,1.09-1.09v-22a.74.74,0,0,1,.74-.74h9.13a.74.74,0,0,1,.65.37l13.31,22.93a1.07,1.07,0,0,0,.94.54h12.1A1.08,1.08,0,0,0,313.5,179.61Zm-23.87-34.09H275.7V125.2h13.93c5.11,0,9.33,4.52,9.33,10.11S294.74,145.52,289.63,145.52Z"/><path class="cls-5" d="M368.62,132.17H358.13a1.09,1.09,0,0,0-1.09,1.09V136a.74.74,0,0,1-1.26.53c-3.71-3.83-8.59-5.72-14.73-5.72a22.41,22.41,0,0,0-16.89,7.57,27.8,27.8,0,0,0,0,36.8,22.3,22.3,0,0,0,16.89,7.46c6.14,0,11-1.88,14.73-5.71a.73.73,0,0,1,1.26.52v2.72a1.09,1.09,0,0,0,1.09,1.09h10.49a1.09,1.09,0,0,0,1.09-1.09V133.26A1.09,1.09,0,0,0,368.62,132.17Zm-15.5,34.55a14.24,14.24,0,0,1-19.43,0,13.87,13.87,0,0,1-3.83-10,13.51,13.51,0,0,1,3.83-9.92,14,14,0,0,1,19.43,0,13.19,13.19,0,0,1,3.92,9.92A13.53,13.53,0,0,1,353.12,166.72Z"/><path class="cls-5" d="M391.54,109.6H381.05a1.09,1.09,0,0,0-1.09,1.09v69.46a1.09,1.09,0,0,0,1.09,1.09h10.49a1.09,1.09,0,0,0,1.09-1.09V110.69A1.09,1.09,0,0,0,391.54,109.6Z"/><path class="cls-5" d="M414.32,109.6H403.84a1.09,1.09,0,0,0-1.09,1.09v69.46a1.09,1.09,0,0,0,1.09,1.09h10.48a1.09,1.09,0,0,0,1.09-1.09V110.69A1.09,1.09,0,0,0,414.32,109.6Z"/><path class="cls-5" d="M469.45,132.17H458.24a1.09,1.09,0,0,0-1,.75l-10,30.25a.74.74,0,0,1-1.4,0l-11.74-30.34a1.07,1.07,0,0,0-1-.7H421.61a1.09,1.09,0,0,0-1,1.52L440,179.4a.75.75,0,0,1,0,.55c-2.23,6.13-5.69,8.94-11.71,9.14a1.08,1.08,0,0,0-1,1.09v9.65a1.09,1.09,0,0,0,1,1.09c12,.29,19.9-5.94,24.86-19.68l17.33-47.61A1.09,1.09,0,0,0,469.45,132.17Z"/><path class="cls-5" d="M526.8,112.54H516.48a1.56,1.56,0,0,0-1.56,1.57v25a.76.76,0,0,1-.75.75h-24a.76.76,0,0,1-.75-.75v-25a1.56,1.56,0,0,0-1.56-1.57H477.42a1.57,1.57,0,0,0-1.57,1.57v65.57a1.56,1.56,0,0,0,1.57,1.56h10.41a1.56,1.56,0,0,0,1.56-1.56V153.53a.75.75,0,0,1,.75-.75h24a.75.75,0,0,1,.75.75v26.15a1.56,1.56,0,0,0,1.56,1.56H526.8a1.56,1.56,0,0,0,1.56-1.56V114.11A1.56,1.56,0,0,0,526.8,112.54Z"/><path class="cls-5" d="M580.76,138.26c-4.62-5-10.6-7.47-17.77-7.47-7.56,0-13.83,2.46-18.64,7.47a25.38,25.38,0,0,0-7.27,18.45q0,11.19,7.36,18.55c4.91,4.91,11.39,7.36,19.53,7.36,8.75,0,15.55-3.05,20.33-9.06a1.57,1.57,0,0,0-.45-2.32l-7.55-4.36a1.57,1.57,0,0,0-1.94.31c-2.44,2.6-5.88,3.95-10.19,3.95-7.14,0-11.65-2.72-13.54-8.23a.76.76,0,0,1,.71-1H586a1.56,1.56,0,0,0,1.55-1.36,28.7,28.7,0,0,0,.3-3.84A25.8,25.8,0,0,0,580.76,138.26Zm-6.55,13.83h-23.1a.75.75,0,0,1-.72-1c1.71-5.68,6.19-8.94,12.6-8.94a11.79,11.79,0,0,1,11.93,8.95A.75.75,0,0,1,574.21,152.09Z"/><path class="cls-5" d="M621.35,131.26c-4.93.4-9.28,2.6-11.86,6.6a.74.74,0,0,1-1.37-.39v-3.73a1.57,1.57,0,0,0-1.57-1.57H597a1.57,1.57,0,0,0-1.57,1.57v45.94a1.57,1.57,0,0,0,1.57,1.56h9.53a1.57,1.57,0,0,0,1.57-1.56V157.79c0-4.72,1.46-8,4.51-10.11a14.45,14.45,0,0,1,8.78-2.49,1.54,1.54,0,0,0,1.62-1.53V132.83A1.56,1.56,0,0,0,621.35,131.26Z"/><path class="cls-5" d="M669.88,138.26c-4.62-5-10.6-7.47-17.76-7.47-7.56,0-13.84,2.46-18.65,7.47a25.37,25.37,0,0,0-7.26,18.45q0,11.19,7.36,18.55c4.9,4.91,11.38,7.36,19.52,7.36,8.75,0,15.55-3.05,20.33-9.06a1.55,1.55,0,0,0-.45-2.32l-7.55-4.36a1.57,1.57,0,0,0-1.94.31c-2.44,2.6-5.88,3.95-10.19,3.95-7.14,0-11.65-2.72-13.53-8.23a.75.75,0,0,1,.7-1H675.1a1.56,1.56,0,0,0,1.55-1.36,28.7,28.7,0,0,0,.3-3.84A25.8,25.8,0,0,0,669.88,138.26Zm-6.55,13.83h-23.1a.75.75,0,0,1-.71-1c1.7-5.68,6.18-8.94,12.6-8.94A11.77,11.77,0,0,1,664,151.13.74.74,0,0,1,663.33,152.09Z"/><path class="cls-5" d="M313.52,179.66l-13.84-23.57A.75.75,0,0,1,300,155a22.3,22.3,0,0,0,12.53-19.67,22.81,22.81,0,0,0-22.88-22.78H263.26a1.09,1.09,0,0,0-1.09,1.09v66.53a1.09,1.09,0,0,0,1.09,1.09h11.37a1.09,1.09,0,0,0,1.09-1.09v-22a.75.75,0,0,1,.74-.75h9.13a.73.73,0,0,1,.65.38l13.31,22.93a1.09,1.09,0,0,0,.94.54h12.1A1.09,1.09,0,0,0,313.52,179.66Zm-23.87-34.09H275.72V125.26h13.93c5.11,0,9.33,4.52,9.33,10.11S294.76,145.57,289.65,145.57Z"/><path class="cls-5" d="M368.64,132.23H358.15a1.09,1.09,0,0,0-1.09,1.09V136a.74.74,0,0,1-1.27.52c-3.7-3.83-8.58-5.71-14.72-5.71a22.4,22.4,0,0,0-16.89,7.56,27.8,27.8,0,0,0,0,36.8,22.31,22.31,0,0,0,16.89,7.47c6.14,0,11-1.89,14.72-5.72a.74.74,0,0,1,1.27.53v2.72a1.09,1.09,0,0,0,1.09,1.09h10.49a1.09,1.09,0,0,0,1.09-1.09V133.32A1.09,1.09,0,0,0,368.64,132.23Zm-15.5,34.55a14.26,14.26,0,0,1-19.43,0,13.91,13.91,0,0,1-3.83-10,13.47,13.47,0,0,1,3.83-9.91,14,14,0,0,1,19.43,0,13.15,13.15,0,0,1,3.92,9.91A13.57,13.57,0,0,1,353.14,166.78Z"/><path class="cls-5" d="M391.56,109.65H381.07a1.09,1.09,0,0,0-1.09,1.09v69.47a1.09,1.09,0,0,0,1.09,1.09h10.49a1.09,1.09,0,0,0,1.09-1.09V110.74A1.09,1.09,0,0,0,391.56,109.65Z"/><path class="cls-5" d="M414.34,109.65H403.86a1.09,1.09,0,0,0-1.09,1.09v69.47a1.09,1.09,0,0,0,1.09,1.09h10.48a1.09,1.09,0,0,0,1.09-1.09V110.74A1.09,1.09,0,0,0,414.34,109.65Z"/><path class="cls-5" d="M469.47,132.23H458.26a1.08,1.08,0,0,0-1,.74l-10,30.26a.74.74,0,0,1-1.4,0l-11.74-30.34a1.07,1.07,0,0,0-1-.69H421.63a1.08,1.08,0,0,0-1,1.51L440,179.46a.75.75,0,0,1,0,.55c-2.23,6.13-5.69,8.93-11.71,9.13a1.08,1.08,0,0,0-1,1.09v9.65a1.08,1.08,0,0,0,1,1.09c12,.3,19.91-5.94,24.87-19.67l17.33-47.61A1.09,1.09,0,0,0,469.47,132.23Z"/><path class="cls-5" d="M526.82,112.59H516.5a1.56,1.56,0,0,0-1.56,1.57v25a.75.75,0,0,1-.75.75h-24a.75.75,0,0,1-.75-.75v-25a1.56,1.56,0,0,0-1.56-1.57H477.44a1.57,1.57,0,0,0-1.57,1.57v65.58a1.56,1.56,0,0,0,1.57,1.56h10.41a1.56,1.56,0,0,0,1.56-1.56V153.58a.75.75,0,0,1,.75-.74h24a.75.75,0,0,1,.75.74v26.16a1.56,1.56,0,0,0,1.56,1.56h10.32a1.56,1.56,0,0,0,1.56-1.56V114.16A1.56,1.56,0,0,0,526.82,112.59Z"/><path class="cls-5" d="M580.78,138.31c-4.62-5-10.6-7.46-17.77-7.46-7.56,0-13.84,2.45-18.65,7.46a25.39,25.39,0,0,0-7.26,18.45q0,11.2,7.36,18.55c4.91,4.91,11.39,7.37,19.53,7.37,8.75,0,15.55-3.05,20.33-9.06a1.57,1.57,0,0,0-.46-2.33l-7.54-4.35a1.57,1.57,0,0,0-1.94.3c-2.44,2.61-5.88,3.95-10.19,3.95-7.14,0-11.66-2.72-13.54-8.23a.75.75,0,0,1,.71-1H586a1.57,1.57,0,0,0,1.55-1.37,28.57,28.57,0,0,0,.3-3.84A25.81,25.81,0,0,0,580.78,138.31Zm-6.56,13.84h-23.1a.75.75,0,0,1-.71-1c1.71-5.69,6.19-8.94,12.6-8.94a11.79,11.79,0,0,1,11.93,8.95A.75.75,0,0,1,574.22,152.15Z"/><path class="cls-5" d="M621.37,131.31c-4.93.41-9.28,2.61-11.86,6.6a.74.74,0,0,1-1.38-.39V133.8a1.57,1.57,0,0,0-1.57-1.57H597a1.57,1.57,0,0,0-1.57,1.57v45.94A1.57,1.57,0,0,0,597,181.3h9.52a1.56,1.56,0,0,0,1.57-1.56V157.85c0-4.72,1.47-8,4.52-10.12a14.5,14.5,0,0,1,8.78-2.48,1.55,1.55,0,0,0,1.62-1.53V132.88A1.57,1.57,0,0,0,621.37,131.31Z"/><path class="cls-5" d="M669.9,138.31c-4.62-5-10.6-7.46-17.76-7.46-7.57,0-13.84,2.45-18.65,7.46a25.39,25.39,0,0,0-7.27,18.45q0,11.2,7.37,18.55c4.9,4.91,11.38,7.37,19.52,7.37,8.75,0,15.55-3.05,20.33-9.06a1.58,1.58,0,0,0-.45-2.33l-7.55-4.35a1.57,1.57,0,0,0-1.94.3c-2.44,2.61-5.88,3.95-10.19,3.95-7.14,0-11.65-2.72-13.53-8.23a.74.74,0,0,1,.7-1h34.64a1.57,1.57,0,0,0,1.55-1.37,28.57,28.57,0,0,0,.3-3.84A25.81,25.81,0,0,0,669.9,138.31Zm-6.55,13.84h-23.1a.74.74,0,0,1-.71-1c1.7-5.69,6.18-8.94,12.6-8.94a11.78,11.78,0,0,1,11.92,8.95A.74.74,0,0,1,663.35,152.15Z"/></svg>